# xmcd CD database file
#
# Track frame offsets:
#	150
#	21742
#	51032
#	70686
#	99359
#	126216
#	148515
#	171063
#	193589
#	213712
#	236873
#
# Disc length: 3390 seconds
#
# Revision: 1
# Processed by: cddbd v1.5.2PL0 Copyright (c) Steve Scherf et al.
# Submitted via: CDex 1.51
#
DISCID=a30d3c0b
DTITLE=Mickey Bridges - Step to this
DYEAR=2007
DGENRE=Jazz
TTITLE0=Always there
TTITLE1=Mercy mercy mercy
TTITLE2=Watermelon man
TTITLE3=The thrill is gone
TTITLE4=What you wont do for love
TTITLE5=Europa
TTITLE6=Cantaloupe island
TTITLE7=Georgia on my mind
TTITLE8=Alright ok you win
TTITLE9=Walk on by
TTITLE10=Europa (reprise)
EXTD=YEAR: 2007
EXTT0=
EXTT1=
EXTT2=
EXTT3=
EXTT4=
EXTT5=
EXTT6=
EXTT7=
EXTT8=
EXTT9=
EXTT10=
PLAYORDER=
